# xmcd
#
# Track frame offsets: 
#        150
#        18153
#        34132
#        55357
#        80768
#        96971
#        116371
#        140699
#        149917
#        160524
#
# Disc length: 2305 seconds
#
# Revision: 0
# Processed by: cddbd v1.5.2PL0 Copyright (c) Steve Scherf et al.
# Submitted via: ExactAudioCopyFreeDBPlugin 1.0
#
DISCID=8908ff0a
DTITLE=Terry Allen - Lubbock (On Everything) [RM 2016 CD 1]
DYEAR=1979
DGENRE=Country
TTITLE0=Amarillo Highway (for Dave Hickey)
TTITLE1=High Plains Jamboree
TTITLE2=The Great Joe Bob (A Regional Tragedy)
TTITLE3=The Wolfman of Del Rio
TTITLE4=Lubbock Woman
TTITLE5=The Girl Who Danced Oklahoma
TTITLE6=Truckload of Art
TTITLE7=The Collector (and the Art Mob)
TTITLE8=Oui (a French Song)
TTITLE9=Rendezvous USA
EXTD=
EXTT0=
EXTT1=
EXTT2=
EXTT3=
EXTT4=
EXTT5=
EXTT6=
EXTT7=
EXTT8=
EXTT9=
PLAYORDER=
